<?xml version="1.0" encoding="iso-8859-1"?>
<!-- Generator: Adobe Illustrator 19.0.0, SVG Export Plug-In . SVG Version: 6.00 Build 0)  -->
<svg xmlns="http://www.w3.org/2000/svg" xmlns:xlink="http://www.w3.org/1999/xlink" version="1.1" id="Capa_1" x="0px" y="0px" viewBox="0 0 511.985 511.985" style="enable-background:new 0 0 511.985 511.985;" xml:space="preserve" width="512px" height="512px">
<g>
	<g>
		<g>
			<path d="M511.357,193.093c-0.068-0.171-0.077-0.35-0.162-0.521c-0.365-0.754-0.84-1.45-1.408-2.065L407.472,79.685     c-0.539-0.61-1.162-1.138-1.852-1.57c-0.019,0-0.029,0-0.032,0h-0.01c-1.406-0.843-3.011-1.299-4.651-1.323h-289.86     c-1.604,0.007-3.178,0.434-4.565,1.237c-0.689,0.432-1.313,0.961-1.852,1.57L2.267,190.473c-0.207,0.287-0.392,0.59-0.555,0.905     c-0.335,0.46-0.623,0.951-0.862,1.468c-0.205,0.493-0.362,1.004-0.469,1.527c-0.134,0.526-0.216,1.063-0.247,1.604     c-0.017,0.542,0.018,1.085,0.102,1.621c0.072,0.526,0.195,1.043,0.367,1.545c0.213,0.542,0.481,1.059,0.802,1.545     c0.142,0.318,0.304,0.625,0.486,0.922l247.467,307.2c0.128,0.162,0.316,0.213,0.452,0.367c0.137,0.154,0.341,0.384,0.529,0.555     s0.179,0.273,0.307,0.375h0.085l0.085,0.085c0.068,0.051,0.162,0.077,0.239,0.128c0.275,0.17,0.56,0.324,0.853,0.461     c0.276,0.164,0.561,0.312,0.853,0.444h0.068c0.145,0.06,0.273,0.179,0.418,0.23c0.145,0.051,0.265,0,0.384,0.06     c0.119,0.06,0.179,0.111,0.282,0.137c0.67,0.169,1.357,0.255,2.048,0.256h0.119c0.691-0.002,1.378-0.087,2.048-0.256     c0.102,0,0.179-0.102,0.282-0.137c0.102-0.034,0.264,0,0.384-0.06c0.119-0.06,0.273-0.171,0.418-0.23h0.068     c0.292-0.132,0.577-0.28,0.853-0.444c0.293-0.137,0.578-0.291,0.853-0.461c0.068-0.051,0.171-0.068,0.239-0.128l0.085-0.085     h0.085c0.128-0.102,0.188-0.265,0.307-0.375c0.12-0.111,0.35-0.367,0.529-0.555c0.179-0.188,0.324-0.205,0.452-0.367     l247.467-307.2c0.335-0.461,0.621-0.956,0.853-1.476c0.085-0.162,0.205-0.307,0.282-0.469c0.375-0.895,0.597-1.847,0.657-2.816     c0.013-0.244,0.013-0.489,0-0.734c-0.012-0.76-0.127-1.515-0.341-2.244C511.538,193.606,511.456,193.346,511.357,193.093z      M402.429,99.389l81.545,88.337h-135.91L402.429,99.389z M385.789,93.859l-53.41,86.801l-60.1-86.801H385.789z M316.507,187.726     h-60.51h-60.51l60.51-87.407L316.507,187.726z M239.715,93.859l-60.1,86.801l-53.41-86.801H239.715z M273.917,467.619     l35.968-141.218c0.864-2.991,0.031-6.215-2.173-8.412s-5.431-3.021-8.419-2.147c-2.988,0.874-5.263,3.305-5.937,6.344     l-37.359,146.714l-37.385-146.773c-0.674-3.039-2.949-5.471-5.937-6.344c-2.988-0.874-6.214-0.051-8.419,2.147     c-2.205,2.198-3.038,5.422-2.173,8.412l35.994,141.278L19.794,196.635l89.771-97.246l54.366,88.337H51.197     c-4.713,0-8.533,3.82-8.533,8.533s3.82,8.533,8.533,8.533h121.293l21.282,87.356c0.932,3.82,4.354,6.509,8.286,6.511     c0.681,0,1.36-0.08,2.022-0.239c2.2-0.535,4.098-1.923,5.274-3.859c1.176-1.935,1.535-4.258,0.998-6.458l-20.292-83.311h131.874     l-20.292,83.311c-0.538,2.2-0.179,4.523,0.998,6.458s3.074,3.323,5.274,3.859c0.662,0.159,1.341,0.239,2.022,0.239     c3.932-0.002,7.354-2.691,8.286-6.511l21.282-87.356h146.125L273.917,467.619z" fill="#FFFFFF"/>
			<path d="M103.122,450.339l-27.964-13.508l-13.5-27.964c-1.426-2.944-4.409-4.814-7.68-4.814s-6.254,1.87-7.68,4.814l-13.5,27.964     L4.818,450.322c-2.944,1.426-4.814,4.409-4.814,7.68c0,3.271,1.87,6.254,4.814,7.68v0.017l27.981,13.5l13.491,27.972     c1.426,2.944,4.409,4.814,7.68,4.814c3.271,0,6.254-1.87,7.68-4.814l13.5-27.972l27.972-13.5c2.944-1.426,4.814-4.409,4.814-7.68     C107.936,454.748,106.066,451.765,103.122,450.339z M65.055,465.119c-1.737,0.838-3.138,2.24-3.977,3.977l-7.108,14.737     l-7.1-14.72c-0.838-1.737-2.24-3.138-3.977-3.977l-14.737-7.125l14.737-7.1c1.739-0.835,3.142-2.237,3.977-3.977l7.1-14.72     l7.108,14.72c0.838,1.737,2.24,3.138,3.977,3.977l14.729,7.1L65.055,465.119z" fill="#FFFFFF"/>
			<path d="M408.863,61.646v0.017l27.972,13.491l13.5,27.964c1.426,2.944,4.409,4.814,7.68,4.814c3.271,0,6.254-1.87,7.68-4.814     l13.491-27.964l27.981-13.491c2.944-1.426,4.814-4.409,4.814-7.68c0-3.271-1.87-6.254-4.814-7.68l-27.972-13.517L465.703,4.814     C464.278,1.87,461.294,0,458.023,0c-3.271,0-6.254,1.87-7.68,4.814l-13.508,27.972l-27.972,13.5     c-2.944,1.426-4.814,4.409-4.814,7.68C404.049,57.237,405.919,60.22,408.863,61.646z M446.939,46.866     c1.737-0.838,3.138-2.24,3.977-3.977l7.108-14.737l7.1,14.72c0.838,1.737,2.24,3.138,3.977,3.977l14.72,7.108l-14.72,7.1     c-1.739,0.835-3.142,2.237-3.977,3.977l-7.1,14.72l-7.108-14.72c-0.838-1.737-2.24-3.138-3.977-3.977l-14.729-7.083     L446.939,46.866z" fill="#FFFFFF"/>
			<path d="M478.597,433.255l-27.972-13.491l-13.5-27.964c-1.426-2.944-4.409-4.814-7.68-4.814c-3.271,0-6.254,1.87-7.68,4.814     l-13.491,27.964l-27.981,13.491c-2.944,1.426-4.814,4.409-4.814,7.68c0,3.271,1.87,6.254,4.814,7.68l27.981,13.5l13.491,27.972     c1.426,2.944,4.409,4.814,7.68,4.814c3.271,0,6.254-1.87,7.68-4.814l13.5-27.972l27.972-13.5c2.944-1.426,4.814-4.409,4.814-7.68     C483.411,437.664,481.541,434.681,478.597,433.255z M440.522,448.052c-1.737,0.838-3.138,2.24-3.977,3.977l-7.108,14.737     l-7.1-14.72c-0.838-1.737-2.24-3.138-3.977-3.977l-14.737-7.125l14.72-7.1c1.739-0.835,3.142-2.237,3.977-3.977l7.1-14.72     l7.108,14.72c0.838,1.737,2.24,3.138,3.977,3.977l14.729,7.1L440.522,448.052z" fill="#FFFFFF"/>
		</g>
	</g>
</g>
<g>
</g>
<g>
</g>
<g>
</g>
<g>
</g>
<g>
</g>
<g>
</g>
<g>
</g>
<g>
</g>
<g>
</g>
<g>
</g>
<g>
</g>
<g>
</g>
<g>
</g>
<g>
</g>
<g>
</g>
</svg>
